<svg xmlns="http://www.w3.org/2000/svg" xmlns:xlink="http://www.w3.org/1999/xlink" version="1.1" x="0px" y="0px" viewBox="0 0 143.98 308.0375" style="enable-background:new 0 0 143.98 246.43;" xml:space="preserve"><g><ellipse transform="matrix(0.2268 -0.9739 0.9739 0.2268 25.9885 93.675)" cx="71.991" cy="30.47" rx="22.495" ry="22.495"/><path d="M141.206,6.723c-1.26-4.809-6.177-7.686-10.985-6.428c-4.807,1.26-7.687,6.179-6.428,10.986   c1.558,5.949,2.187,11.03,2.187,15.338c-0.021,7.35-1.747,12.457-4.156,16.458c-3.593,5.947-9.26,9.665-14.334,11.86   c-2.513,1.091-4.813,1.778-6.419,2.173c-0.653,0.162-1.181,0.273-1.57,0.348c-0.355-0.042-0.716-0.063-1.081-0.063H45.564   c-0.37,0-0.736,0.023-1.097,0.066c-2.071-0.407-8.264-1.928-13.798-5.675c-3.342-2.236-6.441-5.16-8.739-9.088   c-2.285-3.945-3.912-8.959-3.931-16.079c0-4.312,0.626-9.387,2.186-15.331c1.262-4.808-1.614-9.729-6.419-10.99   c-4.808-1.263-9.729,1.612-10.99,6.42C0.878,13.948,0,20.564,0,26.62c-0.022,10.31,2.623,19.019,6.774,25.808   c6.243,10.235,15.337,15.894,22.559,19.027c2.445,1.055,4.699,1.835,6.646,2.416l11.6,49.428c-0.142,0.49-0.266,0.99-0.354,1.506   L29.139,230.653c-1.256,7.351,3.683,14.326,11.033,15.582c0.769,0.132,1.534,0.195,2.289,0.195c6.457,0,12.166-4.648,13.291-11.23   l15.534-90.896h1.407l15.532,90.897c1.124,6.579,6.833,11.227,13.289,11.228c0.757,0,1.522-0.063,2.293-0.195   c7.35-1.256,12.289-8.23,11.033-15.58L96.753,124.803c-0.088-0.514-0.21-1.012-0.352-1.501l11.601-49.424   c3.878-1.154,8.999-3.129,14.313-6.476c5.273-3.346,10.752-8.17,14.89-14.976c4.15-6.787,6.796-15.498,6.775-25.808   C143.98,20.56,143.099,13.95,141.206,6.723z"/></g><text x="0" y="261.43" fill="#000000" font-size="5px" font-weight="bold" font-family="'Helvetica Neue', Helvetica, Arial-Unicode, Arial, Sans-serif">Created by Gan Khoon Lay</text><text x="0" y="266.43" fill="#000000" font-size="5px" font-weight="bold" font-family="'Helvetica Neue', Helvetica, Arial-Unicode, Arial, Sans-serif">from the Noun Project</text></svg>